<?xml version="1.0" encoding="UTF-8" standalone="no"?>
<!--<svg width="158" height="83" viewBox="0 0 158 83" fill="none" xmlns="http://www.w3.org/2000/svg">-->

<svg
   width="147.56795"
   height="74.404434"
   viewBox="3 9 133.55832 56.475654"
   fill="none"
   version="1.1"
   id="svg5"
   xmlns="http://www.w3.org/2000/svg"
   xmlns:svg="http://www.w3.org/2000/svg">
  <g
     filter="url(#filter0_d_1_35)"
     id="g3"
     transform="matrix(0.88227703,0,0,0.88227703,0.96799317,1.589799)"
     clip-path="url(#clipPath5)">
    <rect
       x="3"
       y="3"
       width="150"
       height="75"
       rx="6"
       fill="#222326"
       id="rect1" />
    <path
       d="m 42.6399,48.3653 c -0.1001,-0.1996 -0.1852,-0.4292 -0.2552,-0.6888 -0.0701,-0.2595 -0.1301,-0.5341 -0.1802,-0.8235 -0.2302,0.2495 -0.4954,0.4841 -0.7957,0.7037 -0.3003,0.2196 -0.6356,0.4143 -1.006,0.584 -0.3603,0.1597 -0.7607,0.2845 -1.2011,0.3744 -0.4404,0.0998 -0.9158,0.1497 -1.4263,0.1497 -0.8308,0 -1.5965,-0.1198 -2.2972,-0.3594 -0.6906,-0.2396 -1.2862,-0.574 -1.7866,-1.0032 -0.5005,-0.4293 -0.8908,-0.9384 -1.1711,-1.5274 -0.2803,-0.5989 -0.4204,-1.2478 -0.4204,-1.9466 0,-1.707 0.6356,-3.0247 1.9068,-3.9531 1.2812,-0.9384 3.1879,-1.4076 5.7203,-1.4076 h 2.3272 v -0.9583 c 0,-0.7786 -0.2553,-1.3926 -0.7657,-1.8418 -0.5105,-0.4592 -1.2462,-0.6888 -2.2071,-0.6888 -0.8508,0 -1.4714,0.1847 -1.8617,0.554 -0.3904,0.3594 -0.5856,0.8436 -0.5856,1.4525 h -4.1739 c 0,-0.6888 0.1502,-1.3427 0.4505,-1.9616 0.3102,-0.6189 0.7557,-1.163 1.3362,-1.6321 0.5905,-0.4692 1.3062,-0.8386 2.147,-1.1081 0.8508,-0.2795 1.8217,-0.4193 2.9127,-0.4193 0.9809,0 1.8918,0.1198 2.7326,0.3594 0.8508,0.2396 1.5864,0.594 2.207,1.0631 0.6206,0.4692 1.106,1.0632 1.4564,1.7819 0.3503,0.7088 0.5255,1.5324 0.5255,2.4707 v 6.948 c 0,0.8685 0.055,1.5872 0.1651,2.1562 0.1101,0.569 0.2703,1.0582 0.4805,1.4675 v 0.2545 z m -3.9787,-2.9199 c 0.4204,0 0.8108,-0.0499 1.1711,-0.1497 0.3603,-0.0999 0.6856,-0.2296 0.9759,-0.3894 0.2903,-0.1597 0.5405,-0.3394 0.7507,-0.539 0.2102,-0.2097 0.3754,-0.4193 0.4955,-0.6289 v -2.7852 h -2.132 c -0.6506,0 -1.2061,0.0649 -1.6666,0.1947 -0.4604,0.1198 -0.8357,0.2945 -1.126,0.5241 -0.2903,0.2196 -0.5055,0.4891 -0.6456,0.8086 -0.1401,0.3094 -0.2102,0.6488 -0.2102,1.0182 0,0.559 0.1952,1.0232 0.5855,1.3926 0.4004,0.3693 1.001,0.554 1.8017,0.554 z"
       fill="#ffffff"
       id="path1" />
    <path
       d="m 60.748,41 c 0,11.8703 -9.6496,21.5 -21.5615,21.5 C 27.2746,62.5 17.625,52.8703 17.625,41 c 0,-11.8703 9.6496,-21.5 21.5615,-21.5 11.9119,0 21.5615,9.6297 21.5615,21.5 z"
       stroke="#ffffff"
       stroke-width="3"
       id="path2" />
    <path
       d="m 74.3452,33.6104 h 1.3775 c 0.5035,0 0.9584,-0.072 1.3647,-0.2159 0.4062,-0.1438 0.7533,-0.3449 1.041,-0.603 0.2835,-0.2539 0.5015,-0.5565 0.6538,-0.9077 0.1566,-0.3512 0.2349,-0.7342 0.2349,-1.1489 0,-0.4444 -0.0783,-0.8485 -0.2349,-1.2124 -0.1523,-0.364 -0.3703,-0.6771 -0.6538,-0.9395 -0.2877,-0.2581 -0.6348,-0.4591 -1.041,-0.603 -0.4063,-0.1481 -0.8612,-0.2222 -1.3647,-0.2222 H 72.5615 V 37 h 1.7837 z m 0,-1.4473 v -2.958 h 1.3775 c 0.2539,0 0.4739,0.0402 0.6601,0.1206 0.1862,0.0804 0.3428,0.1904 0.4697,0.3301 0.1228,0.1396 0.2137,0.3025 0.273,0.4887 0.0635,0.1862 0.0952,0.3872 0.0952,0.6031 0,0.1862 -0.0317,0.366 -0.0952,0.5395 -0.0593,0.1693 -0.1502,0.3195 -0.273,0.4507 -0.1269,0.1312 -0.2835,0.2349 -0.4697,0.311 -0.1862,0.0762 -0.4062,0.1143 -0.6601,0.1143 z m 9.3057,4.9639 c 0.6644,0 1.2399,-0.1291 1.7265,-0.3873 0.4867,-0.2581 0.8422,-0.5459 1.0664,-0.8632 l -0.8823,-0.9522 c -0.2031,0.2624 -0.4676,0.4592 -0.7934,0.5903 -0.3259,0.1312 -0.6623,0.1968 -1.0093,0.1968 -0.2455,0 -0.4719,-0.0381 -0.6792,-0.1142 -0.2074,-0.0762 -0.3915,-0.1841 -0.5523,-0.3238 -0.1565,-0.1354 -0.2814,-0.2856 -0.3745,-0.4506 -0.0931,-0.1693 -0.1692,-0.3915 -0.2285,-0.6666 v -0.019 h 4.6592 v -0.749 c 0,-0.5036 -0.0698,-0.9627 -0.2095,-1.3775 -0.1396,-0.4189 -0.3428,-0.7765 -0.6094,-1.0727 -0.2708,-0.2962 -0.6009,-0.5248 -0.9902,-0.6856 -0.3851,-0.165 -0.8252,-0.2475 -1.3203,-0.2475 -0.4782,0 -0.9204,0.0867 -1.3267,0.2602 -0.4062,0.1735 -0.7574,0.4169 -1.0537,0.73 -0.2962,0.3132 -0.5268,0.6877 -0.6919,1.1236 -0.165,0.4316 -0.2475,0.9098 -0.2475,1.4345 v 0.2539 c 0,0.4613 0.0825,0.895 0.2475,1.3013 0.1693,0.402 0.4084,0.7511 0.7173,1.0474 0.3089,0.3004 0.6792,0.5374 1.1109,0.7109 0.4316,0.1735 0.9119,0.2603 1.4409,0.2603 z m -0.2095,-5.6939 c 0.2243,0 0.4211,0.036 0.5903,0.1079 0.1735,0.0677 0.3195,0.1608 0.438,0.2793 0.1185,0.1227 0.2116,0.2666 0.2793,0.4317 0.0677,0.165 0.1016,0.3406 0.1016,0.5268 v 0.1397 h -2.8945 c 0.0423,-0.2243 0.1057,-0.4275 0.1904,-0.6094 0.0846,-0.182 0.1904,-0.3386 0.3174,-0.4697 0.1227,-0.1312 0.2666,-0.2307 0.4316,-0.2984 0.165,-0.0719 0.347,-0.1079 0.5459,-0.1079 z m 9.6167,-1.4282 c -0.4613,0 -0.8866,0.1121 -1.2759,0.3364 -0.3893,0.2201 -0.7236,0.5247 -1.0029,0.9141 L 90.7666,31.103 90.6968,30.1318 H 89.0527 V 37 h 1.7647 v -4.126 c 0.0804,-0.1946 0.1819,-0.3639 0.3047,-0.5078 0.1227,-0.1439 0.2708,-0.2624 0.4443,-0.3555 0.1439,-0.0804 0.3068,-0.1396 0.4888,-0.1777 0.1862,-0.0423 0.3935,-0.0635 0.622,-0.0635 0.2201,0 0.4507,0.0148 0.6919,0.0445 0.2455,0.0254 0.4846,0.0656 0.7173,0.1206 l 0.2603,-1.7583 C 94.207,30.134 94.0229,30.0959 93.7944,30.062 93.5701,30.0239 93.3247,30.0049 93.0581,30.0049 Z m 3.9736,0.1269 H 95.5146 V 37 h 1.606 v -5.1416 c 0.0212,-0.055 0.0444,-0.1058 0.0698,-0.1523 0.0254,-0.0466 0.055,-0.0868 0.0889,-0.1207 0.0465,-0.0465 0.0994,-0.0825 0.1587,-0.1079 0.0592,-0.0254 0.1269,-0.038 0.2031,-0.038 0.0677,0 0.1312,0.0105 0.1904,0.0317 0.0593,0.0169 0.1122,0.0487 0.1587,0.0952 0.0423,0.0466 0.0762,0.1121 0.1016,0.1968 0.0254,0.0846 0.0381,0.1925 0.0381,0.3237 V 37 h 1.5552 v -5.0654 c 0,-0.0508 0,-0.091 0,-0.1206 0,-0.0297 0,-0.0487 0,-0.0572 0.0211,-0.0465 0.0465,-0.0867 0.0761,-0.1206 0.0296,-0.0381 0.0635,-0.0719 0.1016,-0.1015 0.0465,-0.0297 0.0952,-0.0529 0.1462,-0.0699 0.055,-0.0169 0.116,-0.0253 0.184,-0.0253 0.063,0 0.125,0.0105 0.184,0.0317 0.063,0.0169 0.118,0.0487 0.165,0.0952 0.047,0.0508 0.083,0.1185 0.108,0.2031 0.03,0.0847 0.044,0.1926 0.044,0.3238 V 37 h 1.606 v -4.9004 c 0,-0.3808 -0.038,-0.7025 -0.114,-0.9648 -0.072,-0.2666 -0.173,-0.4846 -0.305,-0.6538 -0.135,-0.1651 -0.294,-0.2857 -0.476,-0.3619 -0.177,-0.0761 -0.37,-0.1142 -0.577,-0.1142 -0.165,0 -0.318,0.0211 -0.457,0.0635 -0.14,0.0423 -0.265,0.1015 -0.3749,0.1777 -0.0889,0.0592 -0.1714,0.1312 -0.2476,0.2158 -0.0719,0.0804 -0.1375,0.1714 -0.1967,0.273 C 99.5137,30.6291 99.4671,30.536 99.4121,30.4556 99.3613,30.3709 99.3,30.299 99.228,30.2397 99.1349,30.1593 99.0249,30.1001 98.8979,30.062 98.771,30.0239 98.6271,30.0049 98.4663,30.0049 c -0.3301,0 -0.6115,0.0867 -0.8442,0.2602 -0.2285,0.1693 -0.4084,0.4021 -0.5396,0.6983 z M 108.032,37 h 1.79 v -0.1079 c -0.089,-0.1735 -0.156,-0.3809 -0.203,-0.6221 -0.046,-0.2412 -0.07,-0.5459 -0.07,-0.914 v -2.9454 c 0,-0.3977 -0.074,-0.7469 -0.222,-1.0473 -0.148,-0.3047 -0.353,-0.5565 -0.616,-0.7554 -0.262,-0.1989 -0.573,-0.3491 -0.933,-0.4507 -0.355,-0.1015 -0.74,-0.1523 -1.155,-0.1523 -0.461,0 -0.872,0.0592 -1.231,0.1777 -0.356,0.1143 -0.656,0.2709 -0.902,0.4697 -0.249,0.1989 -0.44,0.4296 -0.571,0.6919 -0.127,0.2624 -0.19,0.5396 -0.19,0.8316 h 1.764 c 0,-0.1227 0.017,-0.2349 0.051,-0.3364 0.038,-0.1016 0.095,-0.1884 0.171,-0.2603 0.085,-0.0804 0.195,-0.1418 0.33,-0.1841 0.136,-0.0465 0.297,-0.0698 0.483,-0.0698 0.211,0 0.395,0.0275 0.552,0.0825 0.161,0.0508 0.294,0.1249 0.4,0.2222 0.102,0.0931 0.178,0.2052 0.228,0.3364 0.051,0.127 0.077,0.2708 0.077,0.4316 v 0.4063 h -0.984 c -0.508,0 -0.959,0.0465 -1.352,0.1396 -0.39,0.0889 -0.718,0.2201 -0.984,0.3936 -0.296,0.1904 -0.519,0.4338 -0.667,0.73 -0.148,0.292 -0.222,0.6284 -0.222,1.0093 0,0.2962 0.059,0.5712 0.178,0.8252 0.118,0.2496 0.283,0.4655 0.495,0.6474 0.212,0.182 0.463,0.3237 0.755,0.4253 0.297,0.1016 0.62,0.1524 0.972,0.1524 0.215,0 0.416,-0.0212 0.603,-0.0635 0.186,-0.0381 0.357,-0.0931 0.514,-0.1651 0.152,-0.0677 0.292,-0.1481 0.419,-0.2412 0.127,-0.0931 0.239,-0.1925 0.336,-0.2983 0.021,0.1227 0.047,0.2391 0.076,0.3491 0.03,0.11 0.066,0.2074 0.108,0.292 z m -1.682,-1.2378 c -0.165,0 -0.311,-0.019 -0.438,-0.0571 -0.123,-0.0423 -0.226,-0.0974 -0.311,-0.1651 -0.085,-0.0719 -0.15,-0.1587 -0.197,-0.2602 -0.042,-0.1058 -0.063,-0.2201 -0.063,-0.3428 0,-0.1566 0.029,-0.3004 0.089,-0.4316 0.059,-0.1354 0.15,-0.2518 0.273,-0.3492 0.122,-0.093 0.281,-0.165 0.476,-0.2158 0.194,-0.055 0.429,-0.0825 0.704,-0.0825 h 0.902 v 1.1807 c -0.051,0.0888 -0.121,0.1777 -0.21,0.2666 -0.089,0.0846 -0.194,0.1608 -0.317,0.2285 -0.123,0.0677 -0.26,0.1227 -0.413,0.165 -0.152,0.0423 -0.317,0.0635 -0.495,0.0635 z M 111.549,37 h 1.771 v -4.8813 c 0.059,-0.0931 0.125,-0.1778 0.197,-0.254 0.072,-0.0761 0.152,-0.1417 0.241,-0.1967 0.11,-0.0762 0.235,-0.1333 0.374,-0.1714 0.144,-0.0381 0.301,-0.0571 0.47,-0.0571 0.203,0 0.385,0.0211 0.546,0.0634 0.161,0.0381 0.298,0.1079 0.413,0.2095 0.114,0.1016 0.201,0.2412 0.26,0.4189 0.063,0.1736 0.095,0.3957 0.095,0.6666 V 37 h 1.765 v -4.2275 c 0,-0.4994 -0.06,-0.9226 -0.178,-1.2696 -0.114,-0.3512 -0.275,-0.639 -0.482,-0.8633 -0.212,-0.22 -0.462,-0.3808 -0.75,-0.4824 -0.287,-0.1015 -0.605,-0.1523 -0.952,-0.1523 -0.271,0 -0.527,0.0381 -0.768,0.1142 -0.241,0.0762 -0.463,0.1862 -0.666,0.3301 -0.119,0.0847 -0.231,0.1799 -0.337,0.2857 -0.105,0.1058 -0.203,0.2221 -0.292,0.3491 l -0.108,-0.9522 h -1.599 z m 11.14,0.127 c 0.664,0 1.24,-0.1291 1.727,-0.3873 0.486,-0.2581 0.842,-0.5459 1.066,-0.8632 L 124.6,34.9243 c -0.204,0.2624 -0.468,0.4592 -0.794,0.5903 -0.326,0.1312 -0.662,0.1968 -1.009,0.1968 -0.246,0 -0.472,-0.0381 -0.679,-0.1142 -0.208,-0.0762 -0.392,-0.1841 -0.553,-0.3238 -0.156,-0.1354 -0.281,-0.2856 -0.374,-0.4506 -0.093,-0.1693 -0.169,-0.3915 -0.229,-0.6666 v -0.019 h 4.66 v -0.749 c 0,-0.5036 -0.07,-0.9627 -0.21,-1.3775 -0.14,-0.4189 -0.343,-0.7765 -0.609,-1.0727 -0.271,-0.2962 -0.601,-0.5248 -0.991,-0.6856 -0.385,-0.165 -0.825,-0.2475 -1.32,-0.2475 -0.478,0 -0.92,0.0867 -1.326,0.2602 -0.407,0.1735 -0.758,0.4169 -1.054,0.73 -0.296,0.3132 -0.527,0.6877 -0.692,1.1236 -0.165,0.4316 -0.248,0.9098 -0.248,1.4345 v 0.2539 c 0,0.4613 0.083,0.895 0.248,1.3013 0.169,0.402 0.408,0.7511 0.717,1.0474 0.309,0.3004 0.679,0.5374 1.111,0.7109 0.432,0.1735 0.912,0.2603 1.441,0.2603 z m -0.21,-5.6939 c 0.225,0 0.422,0.036 0.591,0.1079 0.173,0.0677 0.319,0.1608 0.438,0.2793 0.118,0.1227 0.211,0.2666 0.279,0.4317 0.068,0.165 0.102,0.3406 0.102,0.5268 v 0.1397 h -2.895 c 0.042,-0.2243 0.106,-0.4275 0.191,-0.6094 0.084,-0.182 0.19,-0.3386 0.317,-0.4697 0.123,-0.1312 0.267,-0.2307 0.432,-0.2984 0.165,-0.0719 0.347,-0.1079 0.545,-0.1079 z M 127.164,37 h 1.771 v -4.8813 c 0.059,-0.0931 0.125,-0.1778 0.197,-0.254 0.072,-0.0761 0.152,-0.1417 0.241,-0.1967 0.11,-0.0762 0.235,-0.1333 0.375,-0.1714 0.143,-0.0381 0.3,-0.0571 0.469,-0.0571 0.203,0 0.385,0.0211 0.546,0.0634 0.161,0.0381 0.299,0.1079 0.413,0.2095 0.114,0.1016 0.201,0.2412 0.26,0.4189 0.064,0.1736 0.095,0.3957 0.095,0.6666 V 37 h 1.765 v -4.2275 c 0,-0.4994 -0.059,-0.9226 -0.178,-1.2696 -0.114,-0.3512 -0.275,-0.639 -0.482,-0.8633 -0.212,-0.22 -0.462,-0.3808 -0.749,-0.4824 -0.288,-0.1015 -0.605,-0.1523 -0.952,-0.1523 -0.271,0 -0.527,0.0381 -0.768,0.1142 -0.242,0.0762 -0.464,0.1862 -0.667,0.3301 -0.118,0.0847 -0.231,0.1799 -0.336,0.2857 -0.106,0.1058 -0.204,0.2221 -0.292,0.3491 l -0.108,-0.9522 h -1.6 z m 11.045,-8.5503 h -1.765 v 1.6821 h -1.568 v 1.3013 h 1.568 v 3.1231 c 0,0.4528 0.06,0.8421 0.178,1.1679 0.119,0.3216 0.288,0.5861 0.508,0.7935 0.216,0.2116 0.476,0.3681 0.781,0.4697 0.309,0.0973 0.651,0.146 1.028,0.146 0.195,0 0.391,-0.0106 0.59,-0.0317 0.203,-0.017 0.398,-0.0424 0.584,-0.0762 0.186,-0.0339 0.362,-0.0762 0.527,-0.127 0.165,-0.055 0.309,-0.1185 0.432,-0.1904 L 140.9,35.4956 c -0.08,0.0212 -0.177,0.0423 -0.292,0.0635 -0.11,0.0211 -0.228,0.0402 -0.355,0.0571 -0.131,0.0212 -0.269,0.0381 -0.413,0.0508 -0.139,0.0127 -0.277,0.019 -0.412,0.019 -0.186,0 -0.356,-0.0211 -0.508,-0.0634 -0.148,-0.0424 -0.275,-0.1143 -0.381,-0.2159 -0.106,-0.0973 -0.188,-0.2285 -0.247,-0.3935 -0.056,-0.1693 -0.083,-0.3788 -0.083,-0.6284 v -2.9517 h 2.564 v -1.3013 h -2.564 z M 72.2041,48.8522 v 0.12 c 0,0.4532 0.0648,0.8721 0.1943,1.2568 0.1295,0.3809 0.3199,0.7122 0.5713,0.994 0.2475,0.2819 0.5522,0.5028 0.914,0.6627 0.3657,0.1562 0.7808,0.2343 1.2454,0.2343 0.4609,0 0.8722,-0.0781 1.234,-0.2343 0.3618,-0.1599 0.6665,-0.3808 0.9141,-0.6627 0.2476,-0.2818 0.4361,-0.6131 0.5656,-0.994 0.1295,-0.3847 0.1942,-0.8036 0.1942,-1.2568 v -0.12 c 0,-0.4494 -0.0647,-0.8646 -0.1942,-1.2454 -0.1295,-0.3847 -0.318,-0.7179 -0.5656,-0.9998 -0.2514,-0.2818 -0.558,-0.5027 -0.9198,-0.6627 -0.3618,-0.1599 -0.775,-0.2399 -1.2397,-0.2399 -0.4646,0 -0.8779,0.08 -1.2397,0.2399 -0.358,0.16 -0.6608,0.3809 -0.9083,0.6627 -0.2514,0.2819 -0.4418,0.6151 -0.5713,0.9998 -0.1295,0.3808 -0.1943,0.796 -0.1943,1.2454 z m 1.5882,0.12 v -0.12 c 0,-0.2514 0.0248,-0.4894 0.0743,-0.7141 0.0495,-0.2247 0.1276,-0.4228 0.2342,-0.5942 0.1067,-0.1713 0.2438,-0.3065 0.4114,-0.4056 0.1675,-0.099 0.3694,-0.1485 0.6055,-0.1485 0.24,0 0.4437,0.0495 0.6113,0.1485 0.1676,0.0991 0.3047,0.2343 0.4113,0.4056 0.1029,0.1714 0.179,0.3695 0.2285,0.5942 0.0496,0.2247 0.0743,0.4627 0.0743,0.7141 v 0.12 c 0,0.259 -0.0247,0.5027 -0.0743,0.7312 -0.0495,0.2247 -0.1256,0.4209 -0.2285,0.5884 -0.1066,0.1714 -0.2437,0.3066 -0.4113,0.4057 -0.1676,0.099 -0.3675,0.1485 -0.5999,0.1485 -0.2399,0 -0.4456,-0.0495 -0.6169,-0.1485 -0.1676,-0.0991 -0.3047,-0.2343 -0.4114,-0.4057 -0.1066,-0.1675 -0.1847,-0.3637 -0.2342,-0.5884 -0.0495,-0.2285 -0.0743,-0.4722 -0.0743,-0.7312 z M 79.4481,52 h 1.5939 v -4.3932 c 0.0533,-0.0838 0.1123,-0.16 0.1771,-0.2285 0.0647,-0.0686 0.1371,-0.1276 0.2171,-0.1771 0.099,-0.0686 0.2114,-0.12 0.337,-0.1543 0.1295,-0.0343 0.2704,-0.0514 0.4228,-0.0514 0.1828,0 0.3466,0.0191 0.4913,0.0571 0.1447,0.0343 0.2685,0.0972 0.3713,0.1886 0.1029,0.0914 0.1809,0.2171 0.2343,0.377 0.0571,0.1562 0.0857,0.3561 0.0857,0.5999 V 52 h 1.5881 v -3.8048 c 0,-0.4494 -0.0533,-0.8303 -0.1599,-1.1426 -0.1028,-0.3161 -0.2476,-0.5751 -0.4342,-0.7769 -0.1904,-0.1981 -0.4151,-0.3428 -0.6741,-0.4342 -0.259,-0.0914 -0.5446,-0.1371 -0.857,-0.1371 -0.2437,0 -0.4741,0.0343 -0.6912,0.1028 -0.2171,0.0686 -0.4171,0.1676 -0.5999,0.2971 -0.1066,0.0762 -0.2075,0.1619 -0.3027,0.2571 -0.0953,0.0952 -0.1829,0.1999 -0.2628,0.3142 L 80.8877,45.8187 H 79.4481 Z M 97.5351,50.2633 98.0207,52 h 1.691 L 97.0381,43.682 H 95.5813 L 92.8562,52 h 1.6911 l 0.4913,-1.7367 z m -2.1023,-1.3654 0.874,-3.0621 0.8513,3.0621 z m 9.5352,-3.1935 c -0.416,0 -0.798,0.1009 -1.149,0.3028 -0.35,0.198 -0.651,0.4722 -0.902,0.8226 l -0.012,-0.1371 -0.063,-0.874 h -1.479 V 52 h 1.588 v -3.7134 c 0.072,-0.1752 0.164,-0.3275 0.274,-0.457 0.111,-0.1295 0.244,-0.2361 0.4,-0.3199 0.13,-0.0724 0.276,-0.1257 0.44,-0.16 0.168,-0.0381 0.354,-0.0571 0.56,-0.0571 0.198,0 0.405,0.0133 0.623,0.04 0.22,0.0228 0.436,0.059 0.645,0.1085 l 0.234,-1.5825 c -0.125,-0.038 -0.291,-0.0723 -0.497,-0.1028 -0.202,-0.0343 -0.422,-0.0514 -0.662,-0.0514 z M 108.013,52 h 1.393 l 0.657,-3.3021 0.126,-0.6284 0.132,0.6284 L 111,52 h 1.394 l 1.109,-6.1813 h -1.457 l -0.457,3.6448 -0.08,0.5998 -0.109,-0.5884 -0.668,-3.6562 h -1.063 l -0.668,3.6733 -0.109,0.5885 -0.074,-0.5885 -0.463,-3.6733 h -1.451 z m 9.569,0.1143 c 0.598,0 1.116,-0.1162 1.554,-0.3485 0.438,-0.2324 0.757,-0.4913 0.959,-0.777 l -0.794,-0.8569 c -0.183,0.2361 -0.421,0.4132 -0.714,0.5313 -0.293,0.1181 -0.596,0.1771 -0.908,0.1771 -0.221,0 -0.425,-0.0343 -0.612,-0.1028 -0.186,-0.0686 -0.352,-0.1657 -0.497,-0.2914 -0.14,-0.1219 -0.253,-0.2571 -0.337,-0.4056 -0.083,-0.1524 -0.152,-0.3523 -0.205,-0.5999 v -0.0171 h 4.193 v -0.6741 c 0,-0.4533 -0.063,-0.8665 -0.189,-1.2397 -0.125,-0.3771 -0.308,-0.6989 -0.548,-0.9655 -0.244,-0.2666 -0.541,-0.4723 -0.891,-0.617 -0.347,-0.1485 -0.743,-0.2228 -1.188,-0.2228 -0.431,0 -0.829,0.0781 -1.194,0.2342 -0.366,0.1562 -0.682,0.3752 -0.949,0.657 -0.266,0.2818 -0.474,0.6189 -0.623,1.0112 -0.148,0.3885 -0.222,0.8188 -0.222,1.2911 v 0.2285 c 0,0.4152 0.074,0.8055 0.222,1.1712 0.153,0.3618 0.368,0.676 0.646,0.9426 0.278,0.2704 0.611,0.4837 1,0.6398 0.388,0.1562 0.821,0.2343 1.297,0.2343 z m -0.189,-5.1245 c 0.202,0 0.379,0.0324 0.531,0.0971 0.157,0.061 0.288,0.1447 0.395,0.2514 0.106,0.1104 0.19,0.2399 0.251,0.3885 0.061,0.1485 0.091,0.3065 0.091,0.4741 v 0.1257 h -2.605 c 0.038,-0.2018 0.096,-0.3847 0.172,-0.5484 0.076,-0.1638 0.171,-0.3047 0.285,-0.4228 0.111,-0.118 0.24,-0.2075 0.389,-0.2685 0.148,-0.0647 0.312,-0.0971 0.491,-0.0971 z M 125.471,52 h 1.611 v -0.0971 c -0.08,-0.1562 -0.141,-0.3428 -0.183,-0.5599 -0.042,-0.2171 -0.062,-0.4913 -0.062,-0.8226 v -2.6508 c 0,-0.358 -0.067,-0.6722 -0.2,-0.9426 -0.134,-0.2743 -0.318,-0.5009 -0.555,-0.6799 -0.236,-0.179 -0.516,-0.3142 -0.839,-0.4056 -0.32,-0.0914 -0.667,-0.1371 -1.04,-0.1371 -0.415,0 -0.785,0.0533 -1.108,0.16 -0.32,0.1028 -0.591,0.2437 -0.812,0.4227 -0.224,0.179 -0.396,0.3866 -0.514,0.6227 -0.114,0.2361 -0.171,0.4856 -0.171,0.7484 h 1.588 c 0,-0.1104 0.015,-0.2114 0.046,-0.3028 0.034,-0.0914 0.085,-0.1695 0.154,-0.2342 0.076,-0.0724 0.175,-0.1276 0.297,-0.1657 0.122,-0.0419 0.267,-0.0628 0.434,-0.0628 0.191,0 0.356,0.0247 0.497,0.0742 0.145,0.0457 0.265,0.1124 0.36,0.2 0.092,0.0838 0.16,0.1847 0.206,0.3028 0.045,0.1142 0.068,0.2437 0.068,0.3885 v 0.3656 h -0.885 c -0.457,0 -0.863,0.0419 -1.217,0.1257 -0.35,0.0799 -0.646,0.198 -0.886,0.3542 -0.266,0.1713 -0.466,0.3903 -0.599,0.6569 -0.134,0.2628 -0.2,0.5656 -0.2,0.9084 0,0.2666 0.053,0.5142 0.16,0.7427 0.106,0.2247 0.255,0.4189 0.445,0.5827 0.191,0.1638 0.417,0.2913 0.68,0.3827 0.267,0.0915 0.558,0.1372 0.874,0.1372 0.194,0 0.375,-0.0191 0.543,-0.0572 0.167,-0.0342 0.322,-0.0838 0.463,-0.1485 0.137,-0.0609 0.262,-0.1333 0.377,-0.2171 0.114,-0.0838 0.215,-0.1733 0.302,-0.2685 0.02,0.1104 0.042,0.2152 0.069,0.3142 0.027,0.099 0.059,0.1866 0.097,0.2628 z m -1.514,-1.114 c -0.148,0 -0.28,-0.0172 -0.394,-0.0514 -0.11,-0.0381 -0.204,-0.0876 -0.28,-0.1486 -0.076,-0.0647 -0.135,-0.1428 -0.177,-0.2342 -0.038,-0.0952 -0.057,-0.198 -0.057,-0.3085 0,-0.1409 0.027,-0.2704 0.08,-0.3885 0.053,-0.1218 0.135,-0.2266 0.246,-0.3142 0.11,-0.0838 0.253,-0.1485 0.428,-0.1942 0.175,-0.0495 0.387,-0.0743 0.634,-0.0743 h 0.811 v 1.0626 c -0.045,0.08 -0.108,0.16 -0.188,0.24 -0.08,0.0761 -0.175,0.1447 -0.286,0.2056 -0.11,0.061 -0.234,0.1105 -0.371,0.1486 -0.137,0.038 -0.286,0.0571 -0.446,0.0571 z M 130.601,52 h 1.491 l 2.348,-6.1813 h -1.656 l -1.354,4.3589 -0.086,0.4342 -0.086,-0.4342 -1.359,-4.3589 h -1.657 z m 8.061,0.1143 c 0.598,0 1.116,-0.1162 1.554,-0.3485 0.438,-0.2324 0.758,-0.4913 0.96,-0.777 l -0.794,-0.8569 c -0.183,0.2361 -0.421,0.4132 -0.714,0.5313 -0.294,0.1181 -0.596,0.1771 -0.909,0.1771 -0.221,0 -0.424,-0.0343 -0.611,-0.1028 -0.187,-0.0686 -0.352,-0.1657 -0.497,-0.2914 -0.141,-0.1219 -0.253,-0.2571 -0.337,-0.4056 -0.084,-0.1524 -0.152,-0.3523 -0.206,-0.5999 v -0.0171 h 4.194 v -0.6741 c 0,-0.4533 -0.063,-0.8665 -0.189,-1.2397 -0.126,-0.3771 -0.308,-0.6989 -0.548,-0.9655 -0.244,-0.2666 -0.541,-0.4723 -0.892,-0.617 -0.346,-0.1485 -0.742,-0.2228 -1.188,-0.2228 -0.43,0 -0.828,0.0781 -1.194,0.2342 -0.366,0.1562 -0.682,0.3752 -0.948,0.657 -0.267,0.2818 -0.474,0.6189 -0.623,1.0112 -0.148,0.3885 -0.223,0.8188 -0.223,1.2911 v 0.2285 c 0,0.4152 0.075,0.8055 0.223,1.1712 0.152,0.3618 0.368,0.676 0.646,0.9426 0.278,0.2704 0.611,0.4837 0.999,0.6398 0.389,0.1562 0.821,0.2343 1.297,0.2343 z m -0.188,-5.1245 c 0.202,0 0.379,0.0324 0.531,0.0971 0.156,0.061 0.288,0.1447 0.394,0.2514 0.107,0.1104 0.191,0.2399 0.252,0.3885 0.06,0.1485 0.091,0.3065 0.091,0.4741 v 0.1257 h -2.605 c 0.038,-0.2018 0.095,-0.3847 0.171,-0.5484 0.076,-0.1638 0.172,-0.3047 0.286,-0.4228 0.11,-0.118 0.24,-0.2075 0.388,-0.2685 0.149,-0.0647 0.313,-0.0971 0.492,-0.0971 z"
       fill="#ffffff"
       id="path3" />
    <rect
       x="3.5"
       y="3.5"
       width="149"
       height="74"
       rx="5.5"
       stroke="#000000"
       id="rect3" />
  </g>
  <defs
     id="defs5">
    <filter
       id="filter0_d_1_35"
       x="0"
       y="0"
       width="158"
       height="83"
       filterUnits="userSpaceOnUse"
       color-interpolation-filters="sRGB">
      <feFlood
         flood-opacity="0"
         result="BackgroundImageFix"
         id="feFlood3" />
      <feColorMatrix
         in="SourceAlpha"
         type="matrix"
         values="0 0 0 0 0 0 0 0 0 0 0 0 0 0 0 0 0 0 127 0"
         result="hardAlpha"
         id="feColorMatrix3" />
      <feOffset
         dx="1"
         dy="1"
         id="feOffset3" />
      <feGaussianBlur
         stdDeviation="2"
         id="feGaussianBlur3" />
      <feComposite
         in2="hardAlpha"
         operator="out"
         id="feComposite3" />
      <feColorMatrix
         type="matrix"
         values="0 0 0 0 0 0 0 0 0 0 0 0 0 0 0 0 0 0 0.25 0"
         id="feColorMatrix4" />
      <feBlend
         mode="normal"
         in2="BackgroundImageFix"
         result="effect1_dropShadow_1_35"
         id="feBlend4" />
      <feBlend
         mode="normal"
         in="SourceGraphic"
         in2="effect1_dropShadow_1_35"
         result="shape"
         id="feBlend5" />
    </filter>
    <clipPath
       clipPathUnits="userSpaceOnUse"
       id="clipPath5">
      <rect
         style="fill:none;stroke:#000000;stroke-width:1.33357;stroke-dasharray:none;stroke-opacity:1"
         id="rect6"
         width="151.37912"
         height="76.32605"
         x="2.3031392"
         y="2.3465214" />
    </clipPath>
  </defs>
</svg>
